<svg xmlns="http://www.w3.org/2000/svg" viewBox="0 0 300 600" fill="none">
  <!-- PLACEHOLDER: app home screenshot (phone) -->
  <defs>
    <linearGradient id="bg" x1="0" y1="0" x2="0" y2="1">
      <stop offset="0" stop-color="#16171B"/>
      <stop offset="1" stop-color="#0E0F12"/>
    </linearGradient>
    <linearGradient id="acc" x1="0" y1="0" x2="1" y2="1">
      <stop offset="0" stop-color="#E1322A"/>
      <stop offset="1" stop-color="#7E1413"/>
    </linearGradient>
  </defs>
  <rect width="300" height="600" rx="46" fill="url(#bg)"/>
  <rect x="110" y="18" width="80" height="9" rx="4.5" fill="#000" opacity="0.5"/>
  <rect x="24" y="56" width="120" height="16" rx="6" fill="url(#acc)"/>
  <rect x="24" y="84" width="180" height="10" rx="5" fill="#3A3E47"/>
  <rect x="24" y="120" width="252" height="150" rx="18" fill="#1C1E23"/>
  <circle cx="70" cy="170" r="22" fill="url(#acc)"/>
  <rect x="104" y="158" width="120" height="12" rx="6" fill="#F4F4F5"/>
  <rect x="104" y="178" width="80" height="9" rx="4.5" fill="#7C828D"/>
  <rect x="24" y="232" width="252" height="24" rx="8" fill="url(#acc)" opacity="0.9"/>
  <rect x="24" y="292" width="120" height="140" rx="16" fill="#1C1E23"/>
  <rect x="156" y="292" width="120" height="140" rx="16" fill="#1C1E23"/>
  <rect x="44" y="312" width="80" height="80" rx="10" fill="url(#acc)" opacity="0.85"/>
  <rect x="176" y="312" width="80" height="80" rx="10" fill="#E6B94E" opacity="0.85"/>
  <rect x="24" y="456" width="252" height="50" rx="14" fill="url(#acc)"/>
  <rect x="96" y="474" width="108" height="14" rx="7" fill="#fff"/>
  <text x="150" y="556" text-anchor="middle" font-family="monospace" font-size="11" fill="#7C828D">MILLO · MOCKUP</text>
</svg>
